<?xml version="1.0" encoding="UTF-8"?> <svg xmlns="http://www.w3.org/2000/svg" width="197" height="60" viewBox="0 0 197 60" fill="none"><g clip-path="url(#clip0_1_581)"><path d="M17.8319 0C17.8319 0 -4.03634 6.03214 0.664508 10.1425C0.664508 10.1425 0.616702 12.0002 13.7206 11.0714H23.8713V40.3299H33.8254V11.0714C33.8254 11.0714 132.485 8.9361 196.453 3.59793V0C132.485 5.33817 33.8254 7.50014 33.8254 7.50014L7.6122 7.88448L19.6538 4.39332L17.8319 0C17.8319 0 -4.03634 6.03214 0.664508 10.1425L17.8319 0Z" fill="#0B0652"></path><path d="M70.603 30.8921H49.8874C49.912 31.5527 50.0689 32.2015 50.3487 32.7997C50.6285 33.3979 51.0255 33.9333 51.5159 34.3738C52.0063 34.8144 52.58 35.151 53.2028 35.3636C53.8257 35.5761 54.4847 35.6603 55.1407 35.611C56.1446 35.6123 57.1359 35.3861 58.0408 34.9491C58.7253 34.5745 59.3356 34.077 59.8415 33.4811L70.0293 34.2925C68.6541 36.4686 66.7 38.2143 64.3883 39.3317C62.1893 40.346 59.0324 40.8549 54.9176 40.8585C51.3446 40.8585 48.5329 40.4225 46.4826 39.5506C44.4292 38.6787 42.6633 37.2407 41.3887 35.4028C40.0236 33.4505 39.3162 31.1103 39.3702 28.7248C39.3199 27.0357 39.6591 25.3579 40.3612 23.8224C41.0634 22.287 42.1095 20.9356 43.4178 19.8741C46.1232 17.6285 49.8537 16.5039 54.6095 16.5004C58.4693 16.5004 61.5165 17.0039 63.7509 18.0111C65.8592 18.9223 67.6389 20.4612 68.8501 22.4204C70.0187 24.3421 70.603 26.8333 70.603 29.8938V30.8921ZM60.0858 26.6215C59.8787 24.8973 59.3475 23.6589 58.4923 22.9169C57.5185 22.1361 56.2946 21.7394 55.0504 21.8012C54.3072 21.7669 53.5659 21.9007 52.881 22.1926C52.1961 22.4845 51.5851 22.9272 51.0931 23.488C50.3878 24.3866 49.971 25.4794 49.898 26.6215H60.0858Z" fill="#0B0652"></path><path d="M75.4579 17.0234H85.1358V20.8188C86.0671 19.1711 87.0285 18.0341 88.02 17.4078C89.1316 16.7558 90.4042 16.4337 91.6904 16.4789C93.4197 16.5368 95.1175 16.9606 96.6728 17.7227L93.4858 24.0911C92.5632 23.7132 91.5853 23.4896 90.5909 23.4292C89.9884 23.3992 89.3876 23.5155 88.8394 23.7682C88.2911 24.021 87.8114 24.4027 87.4411 24.8812C86.3787 26.2407 85.8475 28.787 85.8475 32.5201V40.3299H75.4579V17.0234Z" fill="#0B0652"></path><path d="M97.9104 33.8548L108.173 33.022C108.499 33.9531 109.125 34.7479 109.952 35.2801C110.889 35.7787 111.942 36.0147 113.001 35.9633C114.129 36.0296 115.252 35.7624 116.23 35.1946C116.49 35.0579 116.709 34.8545 116.865 34.605C117.021 34.3556 117.108 34.0691 117.117 33.7747C117.117 33.1288 116.73 32.6323 115.949 32.28C114.5 31.8353 113.014 31.5262 111.508 31.3565C108.98 31.0443 106.478 30.5429 104.024 29.8565C102.656 29.4195 101.434 28.6124 100.492 27.5237C99.5652 26.5025 99.0534 25.1691 99.0577 23.787C99.0338 22.311 99.5913 20.8854 100.609 19.8207C101.779 18.6239 103.246 17.7632 104.858 17.3278C107.239 16.7146 109.694 16.4397 112.151 16.511C115.365 16.511 117.744 16.7246 119.274 17.1409C120.685 17.5044 121.998 18.1811 123.114 19.1214C124.216 20.1272 125.086 21.3623 125.664 22.7407L115.859 23.5734C115.652 22.8868 115.2 22.3013 114.589 21.9293C113.685 21.4394 112.668 21.1964 111.641 21.2246C110.758 21.1574 109.874 21.3425 109.092 21.7585C108.857 21.887 108.66 22.0747 108.519 22.303C108.378 22.5314 108.299 22.7926 108.289 23.061C108.301 23.3571 108.405 23.6421 108.587 23.8751C108.769 24.1082 109.02 24.2772 109.304 24.3581C109.979 24.6464 111.429 24.892 113.723 25.1429C117.158 25.4774 119.717 25.9454 121.399 26.5468C122.893 27.0243 124.225 27.9118 125.244 29.1091C126.102 30.1374 126.573 31.435 126.578 32.7765C126.548 34.2022 126.054 35.5789 125.17 36.6947C124.232 37.9652 122.75 38.9794 120.724 39.7374C118.699 40.4955 115.942 40.8709 112.454 40.8638C107.525 40.8638 104.015 40.2552 101.926 39.0381C100.939 38.4962 100.074 37.7566 99.3833 36.865C98.6926 35.9734 98.1913 34.9489 97.9104 33.8548Z" fill="#0B0652"></path><path d="M161.475 30.8921H140.76C140.786 31.5527 140.944 32.2012 141.224 32.7991C141.505 33.397 141.903 33.9321 142.393 34.3724C142.884 34.8127 143.458 35.1493 144.081 35.3621C144.703 35.5749 145.362 35.6595 146.018 35.611C147.021 35.6123 148.01 35.386 148.913 34.9491C149.6 34.5751 150.212 34.0775 150.719 33.4811L160.902 34.2925C159.529 36.4684 157.576 38.2142 155.266 39.3317C153.067 40.346 149.908 40.8549 145.79 40.8585C142.213 40.8585 139.402 40.4225 137.355 39.5506C135.302 38.6774 133.537 37.2397 132.261 35.4028C130.898 33.4494 130.191 31.1099 130.243 28.7248C130.192 27.0352 130.532 25.3567 131.235 23.8212C131.938 22.2856 132.986 20.9346 134.295 19.8741C136.994 17.6285 140.723 16.5039 145.482 16.5004C149.349 16.5004 152.398 17.0039 154.629 18.0111C156.731 18.9245 158.505 20.4633 159.712 22.4204C160.88 24.3421 161.465 26.8333 161.465 29.8938L161.475 30.8921ZM150.964 26.6215C150.756 24.8973 150.22 23.6589 149.37 22.9169C148.396 22.137 147.172 21.7404 145.928 21.8012C145.182 21.7652 144.438 21.8982 143.75 22.1901C143.063 22.4821 142.449 22.9257 141.955 23.488C141.254 24.3848 140.837 25.4729 140.76 26.6109L150.964 26.6215Z" fill="#0B0652"></path><path d="M175.642 24.5556L165.757 23.6534C166.025 22.3761 166.569 21.1735 167.35 20.1302C168.189 19.174 169.226 18.4142 170.388 17.9042C171.634 17.3609 172.95 17.0013 174.298 16.8366C176.081 16.5776 177.882 16.4527 179.684 16.4629C182.181 16.4241 184.677 16.574 187.152 16.9113C188.849 17.1342 190.463 17.7802 191.848 18.7903C192.783 19.5134 193.504 20.4785 193.935 21.5822C194.428 22.6863 194.694 23.8793 194.716 25.0894V35.3707C194.692 36.2349 194.773 37.0988 194.955 37.9437C195.212 38.7793 195.569 39.5806 196.017 40.3299H186.308C186.011 39.9023 185.756 39.4463 185.548 38.9686C185.385 38.4859 185.266 37.9892 185.192 37.4846C183.995 38.5178 182.629 39.3359 181.155 39.9028C179.1 40.5826 176.945 40.9092 174.781 40.869C171.568 40.869 169.119 40.2231 167.456 38.9366C166.746 38.4315 166.155 37.7752 165.725 37.0145C165.296 36.2538 165.039 35.4073 164.972 34.5353C164.905 33.6632 165.03 32.7871 165.338 31.9692C165.646 31.1512 166.13 30.4116 166.755 29.803C167.956 28.6642 170.174 27.8172 173.411 27.262C177.288 26.5894 179.803 26.1161 180.953 25.8421C182.104 25.568 183.324 25.2122 184.613 24.7744C184.613 23.7068 184.348 22.9114 183.827 22.4683C183.306 22.0253 182.377 21.8117 181.054 21.8117C179.36 21.8117 178.09 22.052 177.246 22.5164C176.493 22.9899 175.926 23.7103 175.642 24.5556ZM184.608 29.2478C183.191 29.6855 181.709 30.0735 180.162 30.4115C178.064 30.892 176.731 31.3671 176.173 31.8368C175.908 32.0275 175.69 32.2768 175.536 32.5656C175.382 32.8544 175.297 33.1749 175.286 33.5023C175.282 33.8404 175.359 34.1745 175.512 34.4757C175.664 34.777 175.888 35.0365 176.162 35.2319C176.899 35.7295 177.779 35.9662 178.664 35.9045C179.777 35.9122 180.877 35.662 181.878 35.1732C182.741 34.8058 183.479 34.1937 184.002 33.4116C184.45 32.5809 184.665 31.6436 184.624 30.6998L184.608 29.2478Z" fill="#0B0652"></path><path d="M135.74 54.2412H23.568V57.7164H135.74V54.2412Z" fill="#0B0652"></path><path d="M145.721 53.7982C145.727 53.8567 145.727 53.9157 145.721 53.9743C145.717 54.0185 145.706 54.0617 145.689 54.1024C145.679 54.1305 145.66 54.1548 145.636 54.1718C145.615 54.1796 145.593 54.1796 145.572 54.1718C145.494 54.1568 145.421 54.1219 145.36 54.0704C145.233 53.99 145.102 53.9169 144.967 53.8515C144.778 53.757 144.581 53.6819 144.377 53.6273C144.111 53.5545 143.835 53.5203 143.559 53.5259C143.21 53.5205 142.864 53.5915 142.545 53.7341C142.254 53.8663 141.997 54.0613 141.79 54.3053C141.576 54.559 141.413 54.8529 141.312 55.1701C141.204 55.5155 141.148 55.8755 141.148 56.2377C141.14 56.6332 141.201 57.0269 141.328 57.4014C141.439 57.7181 141.611 58.0101 141.833 58.2609C142.044 58.495 142.306 58.6776 142.598 58.7947C142.909 58.9165 143.241 58.978 143.575 58.9762C143.79 58.9752 144.004 58.9483 144.212 58.8961C144.423 58.8501 144.625 58.7728 144.813 58.6666V56.6754H143.219C143.191 56.6765 143.163 56.6689 143.139 56.6536C143.116 56.6384 143.097 56.6162 143.086 56.59C143.05 56.5004 143.034 56.4038 143.039 56.3071C143.032 56.2503 143.032 56.193 143.039 56.1363C143.042 56.0955 143.053 56.0557 143.07 56.0188C143.082 55.9933 143.101 55.9712 143.124 55.9548C143.149 55.9466 143.177 55.9466 143.203 55.9548H145.365C145.404 55.9479 145.443 55.9479 145.482 55.9548C145.521 55.9668 145.557 55.9868 145.588 56.0135C145.62 56.047 145.643 56.0871 145.657 56.1309C145.677 56.1856 145.686 56.2436 145.684 56.3018V58.9068C145.684 58.9888 145.67 59.0702 145.641 59.147C145.593 59.2233 145.522 59.2829 145.439 59.3178C145.312 59.3832 145.181 59.4403 145.046 59.4887C144.881 59.549 144.712 59.6007 144.542 59.6435C144.372 59.6862 144.202 59.7129 144.011 59.7395C143.834 59.7503 143.656 59.7503 143.479 59.7395C142.997 59.7489 142.518 59.6655 142.066 59.494C141.664 59.3449 141.301 59.1058 141.004 58.7947C140.715 58.4873 140.491 58.1241 140.346 57.7271C140.192 57.2717 140.116 56.7933 140.122 56.3124C140.114 55.8105 140.197 55.3113 140.367 54.8391C140.516 54.4194 140.752 54.0358 141.057 53.7127C141.357 53.4002 141.719 53.1547 142.12 52.9921C142.559 52.8172 143.028 52.7302 143.501 52.7359C143.747 52.7336 143.992 52.7569 144.234 52.8053C144.44 52.8419 144.642 52.8955 144.839 52.9654C144.997 53.0151 145.149 53.0832 145.291 53.1682C145.379 53.2178 145.462 53.275 145.54 53.3391C145.582 53.3847 145.613 53.4395 145.631 53.4992C145.679 53.5924 145.709 53.6937 145.721 53.7982Z" fill="#0B0652"></path><path d="M156.036 59.5686C156.042 59.5932 156.042 59.6188 156.036 59.6434C156.02 59.6688 155.996 59.6877 155.967 59.6968C155.92 59.7012 155.871 59.7012 155.824 59.6968C155.739 59.7029 155.654 59.7029 155.569 59.6968C155.495 59.7029 155.42 59.7029 155.346 59.6968C155.298 59.6942 155.251 59.6834 155.208 59.6647C155.174 59.651 155.145 59.6289 155.123 59.6007C155.103 59.5671 155.087 59.5313 155.075 59.4939L154.448 57.8925C154.374 57.7056 154.299 57.5401 154.22 57.3586C154.144 57.2149 154.049 57.0821 153.938 56.9636C153.829 56.8531 153.699 56.766 153.556 56.7074C153.387 56.6399 153.206 56.6072 153.025 56.6113H152.419V59.5259C152.418 59.553 152.409 59.5792 152.392 59.6007C152.375 59.6238 152.351 59.6406 152.323 59.6487L152.185 59.6807C152.113 59.6868 152.04 59.6868 151.968 59.6807C151.895 59.6871 151.822 59.6871 151.75 59.6807L151.606 59.6487C151.577 59.6406 151.551 59.6239 151.532 59.6007C151.527 59.576 151.527 59.5506 151.532 59.5259V53.2376C151.526 53.184 151.533 53.1298 151.552 53.0795C151.572 53.0293 151.603 52.9846 151.643 52.9493C151.708 52.8966 151.789 52.8666 151.872 52.8639H153.317C153.487 52.8639 153.63 52.8639 153.747 52.8639C153.858 52.8639 153.959 52.8639 154.055 52.8959C154.296 52.9316 154.531 53.0035 154.751 53.1094C154.951 53.1978 155.131 53.3247 155.282 53.4831C155.422 53.6367 155.527 53.8188 155.59 54.0169C155.662 54.2245 155.698 54.443 155.696 54.6629C155.699 54.8715 155.667 55.0791 155.601 55.2767C155.544 55.4533 155.456 55.6179 155.34 55.7625C155.217 55.8995 155.076 56.0197 154.921 56.1202C154.753 56.2257 154.575 56.3133 154.39 56.3818C154.5 56.4304 154.603 56.4932 154.698 56.5686C154.793 56.6476 154.877 56.7392 154.947 56.8408C155.033 56.9559 155.109 57.0772 155.176 57.2038C155.243 57.3426 155.312 57.4974 155.383 57.6683L155.994 59.179C156.042 59.3017 156.073 59.3925 156.089 59.4405C156.076 59.4848 156.058 59.5277 156.036 59.5686ZM154.676 54.7643C154.683 54.5255 154.62 54.29 154.496 54.0863C154.352 53.8832 154.138 53.7407 153.896 53.686C153.799 53.6581 153.699 53.6402 153.598 53.6326C153.487 53.6326 153.343 53.6326 153.163 53.6326H152.403V55.9387H153.285C153.494 55.9426 153.702 55.9119 153.901 55.8479C154.06 55.7975 154.208 55.7158 154.337 55.6077C154.449 55.5069 154.537 55.3807 154.591 55.2394C154.65 55.0879 154.678 54.9266 154.676 54.7643Z" fill="#0B0652"></path><path d="M167.031 56.2057C167.039 56.7109 166.973 57.2145 166.835 57.7004C166.722 58.1137 166.524 58.4989 166.256 58.8321C165.997 59.1501 165.663 59.3979 165.284 59.5527C164.853 59.7303 164.39 59.8157 163.924 59.8036C163.471 59.8154 163.02 59.7374 162.596 59.5741C162.237 59.4332 161.919 59.2037 161.672 58.9068C161.423 58.5917 161.243 58.2281 161.141 57.8392C161.017 57.3508 160.958 56.8483 160.966 56.3445C160.96 55.8485 161.024 55.3542 161.157 54.8765C161.272 54.4645 161.471 54.081 161.741 53.7501C162.006 53.4408 162.339 53.1977 162.713 53.0402C163.147 52.8657 163.611 52.7803 164.078 52.7893C164.525 52.7788 164.969 52.8568 165.385 53.0188C165.745 53.1559 166.064 53.3817 166.314 53.6754C166.563 53.9906 166.744 54.3541 166.846 54.743C166.974 55.2198 167.036 55.7119 167.031 56.2057ZM166.075 56.2698C166.076 55.9115 166.042 55.554 165.974 55.2021C165.915 54.8928 165.798 54.5976 165.629 54.332C165.47 54.0886 165.251 53.8916 164.992 53.7608C164.684 53.6127 164.345 53.5412 164.004 53.5526C163.661 53.5415 163.321 53.6187 163.016 53.7768C162.757 53.9214 162.535 54.1242 162.368 54.3694C162.195 54.6302 162.075 54.922 162.012 55.2288C161.939 55.5799 161.903 55.9378 161.906 56.2964C161.902 56.669 161.936 57.041 162.007 57.4068C162.06 57.7178 162.174 58.0152 162.341 58.2822C162.498 58.5253 162.716 58.7223 162.973 58.8534C163.284 58.9977 163.624 59.0671 163.967 59.0563C164.313 59.0685 164.657 58.9913 164.965 58.8321C165.235 58.6768 165.46 58.4543 165.619 58.1862C165.789 57.9192 165.908 57.6221 165.969 57.3107C166.04 56.9683 166.075 56.6195 166.075 56.2698Z" fill="#0B0652"></path><path d="M177.671 57.1773C177.677 57.557 177.616 57.9347 177.49 58.2929C177.375 58.6043 177.194 58.8867 176.959 59.1203C176.73 59.358 176.45 59.5405 176.141 59.6542C175.786 59.772 175.415 59.8297 175.041 59.825C174.693 59.8294 174.347 59.7753 174.016 59.6648C173.721 59.5619 173.451 59.3962 173.225 59.1791C172.989 58.9563 172.808 58.6824 172.694 58.3783C172.571 58.0215 172.511 57.6456 172.518 57.268V53.0028C172.511 52.9785 172.511 52.9524 172.518 52.9281C172.538 52.9055 172.564 52.8889 172.593 52.88C172.636 52.8644 172.68 52.8536 172.726 52.848C172.8 52.8418 172.874 52.8418 172.949 52.848C173.019 52.8419 173.09 52.8419 173.161 52.848C173.21 52.8526 173.258 52.8633 173.305 52.88C173.331 52.8902 173.355 52.9067 173.374 52.9281C173.381 52.9524 173.381 52.9785 173.374 53.0028V57.1185C173.368 57.3989 173.407 57.6784 173.49 57.946C173.557 58.1642 173.672 58.3647 173.825 58.5332C173.97 58.6938 174.152 58.815 174.356 58.8855C174.576 58.972 174.811 59.0138 175.047 59.0082C175.286 59.0137 175.524 58.9739 175.748 58.8908C175.95 58.819 176.132 58.7001 176.279 58.5438C176.428 58.3754 176.541 58.1771 176.608 57.962C176.688 57.7028 176.726 57.4324 176.72 57.1612V53.0028C176.712 52.9785 176.712 52.9524 176.72 52.9281C176.739 52.9043 176.765 52.8874 176.794 52.88C176.839 52.8638 176.885 52.8531 176.932 52.848C177.005 52.842 177.078 52.842 177.15 52.848C177.221 52.8419 177.292 52.8419 177.363 52.848C177.41 52.8531 177.456 52.8638 177.501 52.88C177.529 52.8903 177.554 52.9067 177.575 52.9281C177.58 52.9527 177.58 52.9782 177.575 53.0028L177.671 57.1773Z" fill="#0B0652"></path><path d="M187.736 54.871C187.74 55.1871 187.683 55.5009 187.566 55.7946C187.459 56.061 187.296 56.3012 187.088 56.4992C186.865 56.7 186.603 56.8526 186.318 56.9476C185.974 57.0548 185.616 57.107 185.256 57.1024H184.48V59.5686C184.488 59.593 184.488 59.6191 184.48 59.6434C184.461 59.6666 184.435 59.6834 184.406 59.6914L184.268 59.7235C184.123 59.7377 183.977 59.7377 183.832 59.7235L183.694 59.6914C183.664 59.6848 183.638 59.6678 183.62 59.6434C183.612 59.6191 183.612 59.593 183.62 59.5686V53.2536C183.615 53.1985 183.622 53.1431 183.642 53.0913C183.661 53.0396 183.692 52.9929 183.731 52.9546C183.8 52.8977 183.886 52.8658 183.976 52.8639H185.378C185.521 52.8639 185.665 52.8639 185.798 52.8639C185.96 52.8787 186.122 52.9055 186.281 52.944C186.694 53.0354 187.066 53.2581 187.343 53.5792C187.474 53.7392 187.578 53.9195 187.651 54.113C187.721 54.3592 187.75 54.6154 187.736 54.871ZM186.786 54.9404C186.792 54.6999 186.739 54.4614 186.632 54.2465C186.54 54.0767 186.409 53.9319 186.249 53.8248C186.103 53.7359 185.94 53.6778 185.771 53.6539C185.615 53.6284 185.457 53.6159 185.298 53.6166H184.459V56.3604H185.277C185.508 56.3662 185.739 56.33 185.957 56.2536C186.128 56.1898 186.284 56.0897 186.414 55.96C186.537 55.8321 186.631 55.6792 186.69 55.5116C186.755 55.3284 186.788 55.135 186.786 54.9404Z" fill="#0B0652"></path><path d="M197 59.3285C197.003 59.3836 197.003 59.4389 197 59.494C196.993 59.5347 196.981 59.5743 196.963 59.6114C196.951 59.6429 196.928 59.6692 196.899 59.6862C196.875 59.6917 196.849 59.6917 196.825 59.6862H193.558C193.475 59.6876 193.394 59.6592 193.33 59.6061C193.291 59.5695 193.261 59.5244 193.243 59.4744C193.225 59.4244 193.218 59.3709 193.223 59.3178V53.2376C193.218 53.1846 193.225 53.131 193.243 53.081C193.261 53.0311 193.291 52.986 193.33 52.9494C193.395 52.8973 193.475 52.8674 193.558 52.864H196.788C196.812 52.8565 196.838 52.8565 196.862 52.864C196.888 52.8785 196.908 52.9009 196.92 52.928C196.938 52.9668 196.949 53.0084 196.952 53.0508C196.973 53.1637 196.973 53.2796 196.952 53.3924C196.949 53.4332 196.938 53.473 196.92 53.5099C196.907 53.5359 196.887 53.558 196.862 53.5739C196.838 53.5817 196.812 53.5817 196.788 53.5739H194.132V55.7092H196.416C196.44 55.7015 196.466 55.7015 196.49 55.7092C196.516 55.7257 196.537 55.7499 196.549 55.7786C196.568 55.815 196.578 55.855 196.58 55.8961C196.586 55.9528 196.586 56.0101 196.58 56.0669C196.586 56.1219 196.586 56.1774 196.58 56.2324C196.578 56.2715 196.567 56.3097 196.549 56.3445C196.536 56.3703 196.516 56.391 196.49 56.4032C196.466 56.4085 196.44 56.4085 196.416 56.4032H194.132V58.8481H196.83C196.854 58.8403 196.88 58.8403 196.904 58.8481C196.932 58.8623 196.954 58.8847 196.968 58.9121C196.985 58.9497 196.998 58.9891 197.005 59.0296C197.013 59.1292 197.011 59.2293 197 59.3285Z" fill="#0B0652"></path></g><defs><clipPath id="clip0_1_581"><rect width="197" height="59.8036" fill="white"></rect></clipPath></defs></svg> 